<?xml version="1.0" encoding="UTF-8"?>
<svg width="752pt" height="752pt" version="1.1" viewBox="0 0 752 752" xmlns="http://www.w3.org/2000/svg">
 <defs>
  <clipPath id="b">
   <path d="m139.21 139.21h370.79v473.58h-370.79z"/>
  </clipPath>
  <clipPath id="a">
   <path d="m376 376h236.79v236.79h-236.79z"/>
  </clipPath>
 </defs>
 <rect width="752" height="752" fill="#fff"/>
 <g clip-path="url(#b)">
  <path d="m168.81 568.39c0-11.543 28.414-25.16 47.949-29.598h1.6289l118.39-44.398c2.9805-1.1094 5.5273-3.1445 7.2578-5.8086 1.7344-2.668 2.5625-5.8203 2.3633-8.9922v-39.812c-0.007813-2.7891-0.80469-5.5195-2.2969-7.875-1.4922-2.3555-3.6211-4.2422-6.1367-5.4414-15.164-7.1875-27.977-18.523-36.961-32.691-8.9844-14.172-13.77-30.598-13.805-47.375 0-3.9258-1.5586-7.6875-4.332-10.465-2.7773-2.7734-6.5391-4.3359-10.465-4.3359v-29.598c3.9258 0 7.6875-1.5586 10.465-4.3359 2.7734-2.7734 4.332-6.5391 4.332-10.465v-29.598c0-31.723 16.926-61.039 44.398-76.898 27.477-15.863 61.324-15.863 88.797 0 27.477 15.859 44.398 45.176 44.398 76.898v29.598c0 3.9258 1.5586 7.6914 4.3359 10.465 2.7734 2.7773 6.5391 4.3359 10.465 4.3359v29.598h29.598v-29.598c-0.011718-10.562-5.6484-20.32-14.797-25.602v-18.797c0-42.297-22.566-81.383-59.199-102.53-36.633-21.152-81.766-21.152-118.39 0-36.633 21.148-59.199 60.234-59.199 102.53v18.797c-9.1484 5.2812-14.789 15.039-14.797 25.602v29.598c-0.046875 5.2422 1.2969 10.402 3.8984 14.953 2.5977 4.5508 6.3594 8.3281 10.898 10.949 3.9609 38.125 25.98 72.035 59.199 91.164v20.57l-108.04 39.957c-13.469 3.4023-69.559 20.273-69.559 59.199v29.598c0 3.9258 1.5586 7.6914 4.3359 10.465 2.7734 2.7773 6.5391 4.3359 10.465 4.3359h207.19v-29.602h-192.39z" fill="#9b9b9b"/>
 </g>
 <g clip-path="url(#a)">
  <path d="m494.4 376c-31.402 0-61.516 12.477-83.719 34.68-22.203 22.203-34.68 52.316-34.68 83.719 0 31.398 12.477 61.512 34.68 83.715 22.203 22.203 52.316 34.68 83.719 34.68 31.398 0 61.512-12.477 83.715-34.68s34.68-52.316 34.68-83.715c0-31.402-12.477-61.516-34.68-83.719-22.203-22.203-52.316-34.68-83.715-34.68zm0 207.19c-23.551 0-46.137-9.3555-62.789-26.008s-26.008-39.238-26.008-62.785c0-23.551 9.3555-46.137 26.008-62.789s39.238-26.008 62.789-26.008c23.547 0 46.133 9.3555 62.785 26.008s26.008 39.238 26.008 62.789c0 23.547-9.3555 46.133-26.008 62.785s-39.238 26.008-62.785 26.008z" fill="#9b9b9b"/>
 </g>
 <path d="m479.6 503.13-19.09-19.09-20.867 20.867 29.598 29.598c2.7734 2.7539 6.5234 4.3008 10.434 4.3008s7.6602-1.5469 10.434-4.3008l59.199-59.199-20.867-20.867z" fill="#9b9b9b"/>
</svg>
